<?xml version="1.0" encoding="UTF-8" standalone="no"?>
<svg
   xmlns:dc="http://purl.org/dc/elements/1.1/"
   xmlns:cc="http://creativecommons.org/ns#"
   xmlns:rdf="http://www.w3.org/1999/02/22-rdf-syntax-ns#"
   xmlns:svg="http://www.w3.org/2000/svg"
   xmlns="http://www.w3.org/2000/svg"
   xmlns:sodipodi="http://sodipodi.sourceforge.net/DTD/sodipodi-0.dtd"
   xmlns:inkscape="http://www.inkscape.org/namespaces/inkscape"
   width="190"
   height="160"
   id="svg2"
   version="1.1"
   inkscape:version="0.48.5 r10040"
   sodipodi:docname="L3SVG_2.svg">
  <metadata
     id="metadata36">
    <rdf:RDF>
      <cc:Work
         rdf:about="">
        <dc:format>image/svg+xml</dc:format>
        <dc:type
           rdf:resource="http://purl.org/dc/dcmitype/StillImage" />
      </cc:Work>
    </rdf:RDF>
  </metadata>
  <defs
     id="defs34" />
  <sodipodi:namedview
     pagecolor="#ffffff"
     bordercolor="#666666"
     borderopacity="1"
     objecttolerance="10"
     gridtolerance="10"
     guidetolerance="10"
     inkscape:pageopacity="0"
     inkscape:pageshadow="2"
     inkscape:window-width="1366"
     inkscape:window-height="716"
     id="namedview32"
     showgrid="false"
     inkscape:zoom="1"
     inkscape:cx="1.2145513"
     inkscape:cy="104.69599"
     inkscape:window-x="-8"
     inkscape:window-y="-8"
     inkscape:window-maximized="1"
     inkscape:current-layer="svg2" />
  <path
     style="stroke:#AAAAAA;fill:none;stroke-width:10;"
     d="M 0,0 C 200,0 0,200 200,200"
     id="path2" />
  <path
     style="stroke:#000000;fill:none;stroke-width:10;"
     d="M 10,10 C 20,20 40,20 50,10"
     id="path4" />
  <path
     style="fill:none;stroke:#0a860c;stroke-width:5;"
     d="M 70,10 C 70,20 120,20 120,10"
     id="path6" />
  <path
     style="stroke:#FF0000;fill:none"
     d="M 130,10 C 120,20 180,20 170,10"
     id="path8" />
  <path
     style="stroke:#00FF00;fill:none"
     d="M 10,60 C 20,80 40,80 50,60"
     id="path10" />
  <path
     style="stroke:#0000FF;fill:none;stroke-width:10;"
     d="M 70,60 C 70,80 110,80 110,60"
     id="path12" />
  <path
     style="stroke:#FFFF00;fill:none;stroke-width:5;"
     d="M 130,60 C 120,80 180,80 170,60"
     id="path14" />
  <path
     style="stroke:#00FFFF;fill:none;stroke-width:5;"
     d="M 10,110 C 20,140 40,140 50,110"
     id="path16" />
  <path
     style="stroke:#FF00FF;fill:none"
     d="M 70,110 C 70,140 110,140 110,110"
     id="path18" />
  <path
     style="stroke:#0E0C00;fill:none;stroke-width:10;"
     d="M 130,110 C 120,140 180,140 170,110"
     id="path20" />
  <circle
     cx="60"
     cy="280"
     r="40"
     id="circle26"
     style="fill:#b6b6b6;stroke:#800080;stroke-opacity:1;fill-opacity:1"
     sodipodi:cx="90"
     sodipodi:cy="280"
     sodipodi:rx="40"
     sodipodi:ry="40" />
  <circle
     cx="140"
     cy="280"
     r="40"
     id="circle28"
     style="fill:#b6b6b6;stroke:#000080;stroke-opacity:1;fill-opacity:1"
     sodipodi:cx="170"
     sodipodi:cy="280"
     sodipodi:rx="40"
     sodipodi:ry="40" />
  <circle
     cx="140"
     cy="200"
     r="40"
     id="circle24"
     style="fill:#b6b6b6;stroke:#008000;stroke-opacity:1;fill-opacity:1"
     sodipodi:cx="170"
     sodipodi:cy="200"
     sodipodi:rx="40"
     sodipodi:ry="40" />
  <circle
     cx="60"
     cy="200"
     r="40"
     id="circle22"
     style="fill:#b6b6b6;stroke:#808000;stroke-opacity:1;fill-opacity:1"
     sodipodi:cx="90"
     sodipodi:cy="200"
     sodipodi:rx="40"
     sodipodi:ry="40" />
  <rect
     x="60"
     y="200"
     width="80"
     height="80"
     id="rect30"
     style="fill:#737373;stroke:#800000;stroke-opacity:1;fill-opacity:1" />
</svg>
